<mxfile host="app.diagrams.net" agent="Mozilla/5.0 (Windows NT 10.0; Win64; x64) AppleWebKit/537.36 (KHTML, like Gecko) Chrome/131.0.0.0 Safari/537.36" version="25.0.3">
  <diagram name="Página-1" id="FiEsvjx_5Gttvtdl52O7">
    <mxGraphModel dx="1290" dy="557" grid="1" gridSize="10" guides="1" tooltips="1" connect="1" arrows="1" fold="1" page="1" pageScale="1" pageWidth="827" pageHeight="1169" math="0" shadow="0">
      <root>
        <mxCell id="0" />
        <mxCell id="1" parent="0" />
        <mxCell id="sQ8US_lBjANuEBXHFp5q-1" value="flowchart TD&#xa;    A[Inicio] --&gt; B{Cliente Accede a Plataforma}&#xa;    B --&gt; |Web/Móvil| C[Formulario de Solicitud]&#xa;    C --&gt; D{Información Completa?}&#xa;    D --&gt; |No| E[Solicitar Información Adicional]&#xa;    E --&gt; C&#xa;    D --&gt; |Sí| F[Validar Datos del Cliente]&#xa;    F --&gt; G{Cliente Válido?}&#xa;    G --&gt; |No| H[Rechazar Solicitud]&#xa;    H --&gt; I[Notificar al Cliente]&#xa;    G --&gt; |Sí| J[Registrar Solicitud en Sistema]&#xa;    J --&gt; K{Asignación de Cotizador}&#xa;    K --&gt; |Automática| L[Asignar Cotizador Disponible]&#xa;    K --&gt; |Manual| M[Notificar Equipo de Ventas]&#xa;    L --&gt; N[Revisar Detalles de Solicitud]&#xa;    M --&gt; N&#xa;    N --&gt; O[Calcular Costos]&#xa;    O --&gt; P{Requiere Aprobación?}&#xa;    P --&gt; |Sí| Q[Revisión Interna]&#xa;    P --&gt; |No| R[Generar Cotización]&#xa;    Q --&gt; R&#xa;    R --&gt; S[Verificar Cotización]&#xa;    S --&gt; T{Cotización Aprobada?}&#xa;    T --&gt; |No| U[Ajustar Cotización]&#xa;    U --&gt; S&#xa;    T --&gt; |Sí| V[Enviar Cotización al Cliente]&#xa;    V --&gt; W[Notificar por Correo Electrónico]&#xa;    W --&gt; X{Cliente Desea Seguimiento?}&#xa;    X --&gt; |Sí| Y[Habilitar Seguimiento en Plataforma]&#xa;    X --&gt; |No| Z[Finalizar Proceso]&#xa;    Y --&gt; AA[Cliente Inicia Sesión]&#xa;    AA --&gt; AB{Autenticación Exitosa?}&#xa;    AB --&gt; |No| AC[Reintentar Acceso]&#xa;    AC --&gt; AA&#xa;    AB --&gt; |Sí| AD[Consultar Estado de Cotización]&#xa;    AD --&gt; AE{Requiere Acción?}&#xa;    AE --&gt; |Sí| AF[Generar Notificación]&#xa;    AF --&gt; AG[Enviar Notificación]&#xa;    AE --&gt; |No| Z&#xa;    Z --&gt; AH[Fin]" style="text;whiteSpace=wrap;html=1;" vertex="1" parent="1">
          <mxGeometry width="300" height="600" as="geometry" />
        </mxCell>
      </root>
    </mxGraphModel>
  </diagram>
</mxfile>
